<?xml version="1.0" encoding="UTF-8"?>
<svg width="752pt" height="752pt" version="1.1" viewBox="0 0 752 752" xmlns="http://www.w3.org/2000/svg">
 <defs>
  <clipPath id="b">
   <path d="m139.21 353h166.79v231h-166.79z"/>
  </clipPath>
  <clipPath id="a">
   <path d="m523 323h89.793v216h-89.793z"/>
  </clipPath>
 </defs>
 <g clip-path="url(#b)">
  <path d="m304.97 489.92-32.887-76.309 8.7188-13.363-0.003906-0.003906c3.0547-4.7227 1.9805-11-2.4766-14.434l-35.129-26.242c-0.09375-0.074218-0.20703-0.11328-0.30469-0.18359-1.6992-1.8398-3.3477-3.7305-4.9102-5.6992-54.113 20.172-98.766 66.82-98.766 128.45v93.664c0 4.0859 3.3125 7.3984 7.3945 7.3984h0.003906c4.0859 0 7.3984-3.3086 7.4023-7.3906l0.085937-93.672c0-46.875 29.32-84.035 68.289-105.19l-19.449 41.215c-0.18359 0.39453-0.33594 0.80078-0.44922 1.2227-0.96484 3.207-0.15234 6.6836 2.1328 9.1328 2.2812 2.2969 5.6094 3.2148 8.7461 2.4102l9.9766-2.3672-4.2383 9.7812c-1.8047 4.3555-1.0742 9.3516 1.9023 13.012 0.44141 0.51172 0.94922 0.96484 1.5117 1.3438l69.613 46.617c1.5312 1.5664 3.6211 2.4609 5.8086 2.4961 1.2148-0.003907 2.4102-0.28906 3.4922-0.83594 3.5391-1.8789 5.1992-6.0312 3.9375-9.832-0.10156-0.41797-0.23438-0.82422-0.40234-1.2188zm-71.434-47.664 9.2617-21.359c1.1133-2.5703 0.67969-5.5469-1.1172-7.6953-1.7969-2.1484-4.6562-3.0977-7.3789-2.4492l-12.953 3.0703 18.176-38.523 26.809 20.027-8.8203 13.523h0.003906c-1.3555 2.0781-1.5781 4.6953-0.59766 6.9727l25.5 59.172z"/>
 </g>
 <path d="m257.61 512.89h-51.797c-4.0859 0-7.3984 3.3125-7.3984 7.4023v40.32-0.003907c0 2.9844 1.7891 5.6719 4.5352 6.8281l27.367 11.48v-0.003906c1.9297 0.80859 4.1133 0.76172 6.0078-0.125l24.434-11.48c2.5938-1.2188 4.2539-3.8281 4.2539-6.6992v-40.316c-0.003906-4.0898-3.3164-7.4023-7.4023-7.4023zm-7.3984 43.02-17.203 8.082-19.797-8.3008v-28h37z"/>
 <path d="m298.3 228.01h7.3984v7.3984c0 4.0859 3.3125 7.4023 7.4023 7.4023 4.0859 0 7.3984-3.3164 7.3984-7.4023v-7.3984h7.3984c4.0859 0 7.4023-3.3125 7.4023-7.3984 0-4.0898-3.3164-7.4023-7.4023-7.4023h-7.3984v-7.3984c0-4.0859-3.3125-7.3984-7.3984-7.3984-4.0898 0-7.4023 3.3125-7.4023 7.3984v7.3984h-7.3984c-4.0859 0-7.3984 3.3125-7.3984 7.4023 0 4.0859 3.3125 7.3984 7.3984 7.3984z"/>
 <path d="m483.3 490.7c-7.8516 0-15.379 3.1211-20.93 8.6719-5.5508 5.5508-8.668 13.078-8.668 20.93 0 7.8477 3.1172 15.379 8.668 20.93 5.5508 5.5508 13.078 8.668 20.93 8.668s15.379-3.1172 20.93-8.668c5.5508-5.5508 8.668-13.082 8.668-20.93 0-7.8516-3.1211-15.379-8.6719-20.93-5.5508-5.5469-13.078-8.668-20.926-8.6719zm0 44.398c-3.9258 0-7.6875-1.5586-10.465-4.332-2.7734-2.7773-4.3359-6.543-4.3359-10.465 0-3.9258 1.5625-7.6914 4.3359-10.465 2.7773-2.7773 6.5391-4.3359 10.465-4.3359s7.6914 1.5586 10.465 4.3359c2.7773 2.7734 4.3359 6.5391 4.3359 10.465-0.003906 3.9219-1.5664 7.6836-4.3398 10.457-2.7734 2.7773-6.5352 4.3359-10.461 4.3398z"/>
 <path d="m387.11 322.25c-0.085938 4.9648 1.832 9.7578 5.3203 13.293l13.652 13.809-22.41 22.176v0.003906c-2.4648 2.332-3.8945 5.5586-3.9648 8.9531-0.066406 3.3945 1.2266 6.6758 3.6016 9.1094l11.762 12.082v-0.003907c4.9727 5.0898 13.109 5.25 18.281 0.36328l22.652-22.414 16.562 16.754c3.4141 3.4414 8.0312 5.4219 12.879 5.5195 4.8477 0.097656 9.543-1.6953 13.09-4.9961l6.3047-5.8789h0.003906c3.6406-3.3867 5.7539-8.1016 5.8516-13.074 0.10156-4.9688-1.8203-9.7695-5.3203-13.297l-0.074219-0.074219 21.434-20.848-0.003907-0.003907c-3.4883-3.6484-6.332-7.8633-8.4062-12.465l-23.43 22.789-40.617-41.078 68.449-66.59c2.332-2.2891 5.4688-3.5742 8.7344-3.5742 2.0312 0.011718 4.0273 0.52734 5.8086 1.5l26.742 28.098 2.9609-2.875c4.7891 0.87891 9.4023 2.5508 13.645 4.9492-0.78516-4.6406-2.7305-9.0117-5.6602-12.695l23.918-23.211c5.6016-5.457 5.7812-14.402 0.40234-20.082l-7.918-8.3203v-0.003906c-2.5742-2.7109-6.125-4.2812-9.8594-4.3555-3.7383-0.078125-7.3516 1.3477-10.027 3.9531l-24.102 23.387-0.003907 0.003906c-5.1992-3.7539-11.559-5.5508-17.957-5.0742-6.3945 0.48047-12.418 3.2031-17 7.6875l-68.68 66.812c-3.3086-2.7305-7.457-4.2422-11.746-4.2773h-0.003907c-4.7148-0.007813-9.2617 1.7773-12.711 4.9961l-6.3047 5.875c-3.6289 3.3945-5.7422 8.1094-5.8555 13.078zm174.08-101.3 7.0039 7.3594-23.285 22.594-6.9922-7.3711zm-156.78 169.11-9.0391-9.2852 21.113-20.895 9.1094 9.2148zm-1.3594-70.059 6.3047-5.875v-0.003906c1.5273-1.4023 3.8828-1.3555 5.3516 0.10547l60.145 60.832c0.6875 0.68359 1.0664 1.6211 1.043 2.5898-0.019531 0.96875-0.43359 1.8906-1.1484 2.5469l-6.3047 5.8789c-1.5273 1.4023-3.8828 1.3555-5.3555-0.10547l-60.141-60.836c-0.6875-0.68359-1.0625-1.6211-1.043-2.5898 0.019531-0.96875 0.43359-1.8906 1.1484-2.543z"/>
 <path d="m538.79 342.7c7.8516 0 15.379-3.1172 20.93-8.668 5.5508-5.5508 8.6719-13.082 8.6719-20.93 0-7.8516-3.1211-15.379-8.6719-20.93-5.5508-5.5508-13.078-8.6719-20.93-8.6719-7.8477 0-15.375 3.1211-20.926 8.6719-5.5508 5.5508-8.6719 13.078-8.6719 20.93 0 7.8477 3.1172 15.379 8.668 20.93 5.5508 5.5508 13.082 8.668 20.93 8.668zm0-44.398c3.9258 0 7.6914 1.5586 10.465 4.3359 2.7773 2.7734 4.3359 6.5391 4.3359 10.465 0 3.9219-1.5586 7.6875-4.3359 10.465-2.7734 2.7734-6.5391 4.332-10.465 4.332-3.9219 0-7.6875-1.5586-10.461-4.332-2.7773-2.7773-4.3359-6.543-4.3359-10.465 0.003906-3.9258 1.5625-7.6875 4.3398-10.461 2.7734-2.7734 6.5352-4.3359 10.457-4.3398z"/>
 <path d="m378.59 341.97c-3.7617-5.2422-5.9219-11.465-6.2188-17.91-5.5664 11-14.027 20.27-24.473 26.812-10.441 6.543-22.477 10.113-34.797 10.328-37.742 0-68.445-33.188-68.445-73.98h-0.003906c0.007812-3.1914 0.21875-6.3789 0.625-9.543 20.422-4.1953 41.188-6.5 62.035-6.8828 1.4805 0 2.9492 0.015625 4.4141 0.050781 23.23 0.55078 46.379 2.9297 69.234 7.1094 0.38281 3.0742 0.57812 6.168 0.58594 9.2656-0.011719 4.6367-0.42578 9.2656-1.2422 13.828 0.80078-0.94922 1.6602-1.8516 2.5625-2.6992l6.3047-5.875v-0.003906c2.1562-2 4.5664-3.707 7.1719-5.0781l0.003906-0.17188c-0.023437-3.6641-0.26172-7.3203-0.71094-10.957 0.09375-0.21875 0.17578-0.44141 0.23828-0.67188 1.9336-13.23 2.6562-26.609 2.1523-39.973-0.86719-18.836-6.1328-36.859-20.539-48.699v0.003906c-7.0898-5.3164-15.074-9.3203-23.574-11.82-13.055-4.3086-26.734-6.4336-40.48-6.2969-8.1875 0.019531-16.367 0.64453-24.465 1.8672-6.1914 0.92188-12.289 2.4062-18.215 4.4297-8.5 2.5039-16.488 6.5039-23.578 11.82-13.559 11.141-17.672 32.973-18.824 50.727-0.75 12.656-0.25391 25.352 1.4844 37.91 0.078125 0.62891 0.27344 1.2383 0.58594 1.7891-0.36328 3.2773-0.55078 6.5742-0.56641 9.8711-0.003906 49.016 37.297 88.777 83.246 88.777 26.016-0.21875 50.355-12.867 65.488-34.027zm-135.47-103.36c1.2891-19.887 6.0664-34.184 13.453-40.254 5.7461-4.1445 12.16-7.2734 18.965-9.2461 5.082-1.7344 10.309-3.0039 15.617-3.7969 7.375-1.1133 14.82-1.6836 22.277-1.7031 12.113-0.14062 24.168 1.7148 35.676 5.4922 6.8125 1.9766 13.234 5.1055 18.984 9.2578 9.375 7.707 14.332 20.117 15.152 37.941 0.32812 8.9688 0.078125 17.953-0.75 26.891-23.258-4.1797-46.801-6.5664-70.422-7.1367-1.5781-0.035157-3.168-0.054688-4.7617-0.054688-21.461 0.375-42.844 2.707-63.879 6.9609-0.72266-8.0977-0.82812-16.238-0.3125-24.352z"/>
 <g clip-path="url(#a)">
  <path d="m612.79 410.24c0.11328-31.652-10.793-62.363-30.852-86.852-1.3086 5.4922-3.6562 10.684-6.918 15.293 21.207 29.477 28.184 66.867 19.031 102.01-9.1523 35.141-33.477 64.383-66.367 79.773-0.019531 6.0469-1.2852 12.027-3.7148 17.566 26.09-9.668 48.594-27.102 64.473-49.949 15.883-22.852 24.379-50.016 24.348-77.844z"/>
 </g>
 <path d="m583.11 410.69c0.019531-21.816-6.7305-43.102-19.312-60.926-4.2188 2.8711-8.8984 4.9883-13.836 6.2578 16.324 21.594 22.148 49.348 15.887 75.684-6.2578 26.332-23.953 48.496-48.25 60.434 3.1484 3.8477 5.625 8.1953 7.332 12.863 17.477-8.793 32.172-22.266 42.445-38.918 10.273-16.652 15.719-35.828 15.734-55.395z"/>
 <path d="m589.3 538.79h-65.695c-2.6055 5.6523-6.3672 10.691-11.039 14.801h74.105c0.125 0.45703 0.125 14.344 0 14.801h-221.55c-0.12109-0.45703-0.12109-14.34 0-14.801h88.906c-4.5391-4.0039-8.2188-8.8906-10.809-14.363-2.1758-4.5234-3.5586-9.3906-4.0859-14.383-23.508-8.1719-43.898-23.43-58.371-43.672h18.52c11.203 12.574 25.277 22.262 41.023 28.242 1.207-4.8242 3.2227-9.4062 5.9609-13.555-9.3125-3.4453-17.992-8.4062-25.684-14.688h16.852c4.9062-0.003906 9.6055-1.957 13.074-5.4258 3.4688-3.4648 5.418-8.168 5.4258-13.074v-12.562c-0.007813-4.9062-1.957-9.6094-5.4258-13.074-3.4688-3.4688-8.168-5.4219-13.074-5.4258h-100.56c-4.9062 0.003907-9.6055 1.957-13.074 5.4258-3.4688 3.4648-5.418 8.168-5.4258 13.074v12.562c0.007812 4.9062 1.957 9.6094 5.4258 13.074 3.4688 3.4688 8.168 5.4219 13.074 5.4258h26.094c16.363 26.965 41.648 47.348 71.469 57.617h-71.941c-6.8398 0-12.391 7.418-12.391 16.562v11.285c0 9.1367 5.5469 16.555 12.395 16.555h226.8c6.8359-0.003906 12.391-7.418 12.391-16.555v-11.285c0-9.1445-5.5547-16.562-12.391-16.562zm-256.13-76.117v-12.562c0-2.043 1.6562-3.6992 3.6992-3.6992h100.56c0.98047 0 1.9219 0.38672 2.6172 1.082 0.69141 0.69531 1.082 1.6367 1.082 2.6172v12.562c0 0.98047-0.39062 1.9219-1.082 2.6172-0.69531 0.69531-1.6367 1.082-2.6172 1.082h-100.56c-2.043 0-3.6992-1.6562-3.6992-3.6992z"/>
</svg>
